<?xml version="1.0" standalone="no"?>
<!DOCTYPE svg PUBLIC "-//W3C//DTD SVG 20010904//EN"
 "http://www.w3.org/TR/2001/REC-SVG-20010904/DTD/svg10.dtd">
<svg version="1.0" xmlns="http://www.w3.org/2000/svg"
 width="512.000000pt" height="512.000000pt" viewBox="0 0 512.000000 512.000000"
 preserveAspectRatio="xMidYMid meet">
<metadata>
Created by potrace 1.14, written by Peter Selinger 2001-2017
</metadata>
<g transform="translate(0.000000,512.000000) scale(0.100000,-0.100000)"
fill="#000000" stroke="none">
<path d="M2253 5095 c-369 -104 -678 -439 -790 -855 -20 -74 -26 -126 -29
-232 -7 -214 25 -334 132 -500 87 -135 114 -215 115 -331 1 -159 -104 -260
-260 -250 -63 4 -95 19 -144 70 -60 62 -113 183 -132 303 -4 25 -9 54 -11 64
-2 11 -4 44 -5 73 -1 29 -5 53 -10 53 -14 0 -107 -96 -157 -163 -28 -37 -69
-97 -91 -135 -42 -72 -123 -252 -114 -252 3 0 1 -6 -5 -12 -16 -21 -88 -283
-107 -393 -12 -67 -19 -126 -30 -225 -4 -36 -9 -76 -12 -90 -12 -61 -10 -499
3 -595 36 -272 118 -507 252 -722 292 -470 743 -767 1322 -870 128 -23 174
-26 395 -27 259 -1 308 2 485 29 607 92 1074 410 1342 915 258 486 351 1179
256 1910 -6 47 -12 92 -14 100 -1 8 -3 22 -3 30 -3 36 -17 42 -52 21 -95 -55
-249 -75 -354 -47 -157 41 -315 161 -450 341 -37 49 -86 134 -91 155 0 3 -11
28 -23 55 -85 188 -163 435 -196 622 -30 176 -29 424 3 543 11 41 22 82 24 90
2 11 -10 14 -62 14 -87 -1 -137 -9 -200 -33 -201 -76 -299 -239 -315 -521 -10
-174 -40 -263 -116 -345 -136 -148 -363 -189 -541 -99 -129 65 -225 217 -262
412 -13 67 -13 185 -2 242 50 237 159 431 359 638 l41 42 -34 -1 c-19 0 -72
-11 -117 -24z"/>
<path d="M3802 4055 c-14 -68 -7 -181 16 -247 29 -83 73 -140 165 -214 147
-118 277 -253 357 -369 l34 -49 8 29 c10 34 12 185 4 230 -10 57 -46 148 -77
196 -37 58 -93 111 -179 169 -59 39 -118 86 -191 152 -14 13 -47 50 -73 83
-27 33 -50 61 -51 63 -2 2 -8 -18 -13 -43z"/>
</g>
</svg>
